<svg width="196" height="196" viewBox="0 0 196 196" fill="none" xmlns="http://www.w3.org/2000/svg">
<mask id="mask0_733_3793" style="mask-type:alpha" maskUnits="userSpaceOnUse" x="0" y="0" width="196" height="196">
<rect width="196" height="196" fill="#D9D9D9"/>
</mask>
<g mask="url(#mask0_733_3793)">
<rect width="196" height="196" fill="#F3F3F3"/>
<path d="M211.352 195.982C217.662 207.172 220.132 211.842 220.732 217.262H155.822H101.322C102.362 216.732 103.482 216.182 104.572 215.672C107.652 212.632 111.542 211.812 114.632 210.492C115.612 210.072 116.522 209.602 117.282 208.992C118.372 208.122 119.842 207.832 121.362 207.632C123.842 207.302 126.462 207.222 127.832 205.302C127.832 205.302 127.832 205.292 127.842 205.282C128.072 204.962 128.262 204.602 128.402 204.182C129.972 201.472 133.352 197.812 138.392 196.152C143.992 194.332 147.852 192.972 151.622 191.142C152.462 189.652 155.242 189.532 157.132 189.052C158.082 188.812 158.812 188.472 158.962 187.832C159.122 187.142 159.632 186.912 160.382 186.732C161.732 186.422 163.882 186.352 166.262 184.332C166.282 184.322 166.292 184.302 166.312 184.292C173.292 177.442 183.742 174.072 186.102 167.412L185.892 167.372C183.212 164.102 179.842 161.402 175.702 159.082C166.802 152.162 166.802 128.332 166.802 128.332C168.632 145.742 178.722 150.332 178.722 150.332C178.242 149.692 177.792 149.042 177.382 148.382C181.172 147.142 187.032 150.752 188.642 152.572C192.152 155.432 194.242 160.592 197.052 165.912C198.172 168.022 200.692 170.082 202.262 172.102C202.272 172.112 202.282 172.132 202.292 172.142C202.632 172.642 202.942 173.122 203.222 173.592C204.582 175.832 205.382 177.792 205.842 179.622C206.262 181.242 206.412 182.762 206.452 184.292C206.452 184.292 207.082 185.832 207.952 187.862C209.042 190.482 210.472 193.892 211.352 195.982Z" fill="white"/>
<path d="M185.912 167.392L186.122 167.432C183.762 174.092 173.312 177.462 166.332 184.312C166.312 184.322 166.302 184.342 166.282 184.352C163.902 186.372 161.752 186.442 160.402 186.752V185.422L157.982 185.342C159.952 184.592 161.512 183.792 162.202 182.932C164.062 180.622 172.502 174.192 172.502 174.192C146.742 176.182 135.422 161.352 135.422 161.352C135.272 162.632 135.552 164.072 135.992 165.432L133.782 165.502C124.602 153.442 130.142 140.042 130.142 140.042C132.932 157.712 142.702 165.612 152.462 168.402C162.222 171.192 177.812 171.432 177.812 171.432C168.652 169.602 163.772 156.722 163.622 156.322C167.812 159.102 175.702 159.102 175.702 159.102C179.862 161.422 183.232 164.122 185.912 167.392Z" fill="#D3D3D3"/>
<path d="M163.643 156.312C163.793 156.712 168.673 169.592 177.833 171.422C177.833 171.422 162.243 171.182 152.483 168.392C142.723 165.602 132.953 157.692 130.163 140.032C130.163 140.032 124.613 153.442 133.803 165.492C122.303 150.702 126.823 136.232 129.913 117.552C132.993 98.9319 134.943 80.2919 128.173 63.7519C127.683 62.4619 127.103 61.2319 126.453 60.0519C117.613 44.2419 113.423 40.9919 113.423 34.0219C113.433 33.9719 113.433 33.9319 113.443 33.8819C114.673 25.6119 122.833 20.1819 122.833 20.1819C118.253 22.0119 112.753 26.5919 109.703 33.0819C109.643 33.0919 109.573 33.0919 109.513 33.1019C99.503 33.9619 89.943 41.1019 83.073 55.4019C82.633 56.3019 82.213 57.2319 81.803 58.1919C79.593 63.3619 78.133 67.8719 77.203 71.8419C77.203 71.8519 77.193 71.8619 77.193 71.8719C76.483 74.8919 76.083 77.5919 75.883 80.0419L75.793 80.1219C73.463 77.5219 70.583 74.3019 69.023 72.9219C68.783 72.7019 67.993 72.3319 67.023 72.2919C66.273 72.2619 65.453 72.2519 64.583 72.2419L64.593 71.4219C68.133 43.7419 80.153 25.8519 93.503 16.5019C111.833 3.67193 126.503 9.17193 126.503 9.17193C147.593 6.42193 173.713 25.9319 173.253 71.5019C172.813 115.082 168.183 133.992 177.413 148.392C177.823 149.052 178.273 149.702 178.753 150.342C178.753 150.342 168.663 145.752 166.833 128.342C166.833 128.342 166.833 152.172 175.733 159.092C175.723 159.102 167.823 159.102 163.643 156.312Z" fill="black"/>
<path d="M121.192 205.092C118.762 206.822 115.992 207.502 113.012 208.052C110.332 208.542 107.482 208.932 104.572 209.892C97.6424 212.172 92.4824 216.442 91.5324 217.262H71.6124C71.0424 216.172 68.8324 214.582 67.1124 212.932C66.4724 212.312 65.9024 211.692 65.5124 211.072C64.9724 210.232 63.7724 209.692 62.4324 209.232C61.2124 208.802 59.8624 208.432 58.7924 207.922V207.912L58.8124 207.882C59.7224 198.812 52.9424 186.662 52.9424 186.662C59.2524 180.422 57.9524 167.682 57.2624 163.232C57.1124 162.232 56.9924 161.652 56.9924 161.652C57.6624 161.702 57.7724 159.642 57.9624 157.772C58.1124 156.342 58.3024 155.012 58.8124 154.852C60.9724 154.192 62.9724 152.952 64.2424 151.682C66.9624 148.962 69.6824 147.152 69.6824 147.152C69.6824 147.152 69.6724 147.202 69.6624 147.302C69.4924 148.712 68.3224 160.072 75.1224 163.472C75.1224 163.472 76.0324 150.782 81.4724 146.252L81.5324 146.242C81.5624 146.402 81.5924 146.572 81.6324 146.732C82.9424 152.802 85.4624 160.852 86.9024 168.302C88.0124 174.052 88.9024 181.522 88.9024 181.522C88.9024 181.522 111.142 169.862 123.082 156.942C124.982 160.762 130.422 168.912 138.582 170.732C138.582 170.732 136.932 168.262 136.002 165.432C135.562 164.072 135.272 162.632 135.432 161.352C135.432 161.352 146.742 176.172 172.512 174.192C172.512 174.192 164.072 180.622 162.212 182.932C161.512 183.792 159.952 184.592 157.992 185.342C154.712 186.582 150.292 187.722 146.842 188.862C141.312 190.682 129.512 194.662 124.532 201.742C123.512 203.172 122.392 204.262 121.192 205.092Z" fill="white"/>
<path d="M157.153 189.072C155.263 189.552 152.483 189.682 151.643 191.162C147.873 192.992 144.013 194.352 138.413 196.172C133.373 197.832 129.993 201.492 128.423 204.202C128.193 204.592 128.003 204.962 127.863 205.302C127.853 205.312 127.853 205.322 127.853 205.322C126.483 207.242 123.863 207.322 121.383 207.652L121.333 207.052L121.213 205.092C122.413 204.262 123.523 203.172 124.543 201.732C129.523 194.652 141.323 190.672 146.853 188.852C150.303 187.712 154.723 186.572 158.003 185.332L160.423 185.412V186.742C159.673 186.912 159.163 187.152 159.003 187.842C158.823 188.492 158.103 188.822 157.153 189.072Z" fill="#D3D3D3"/>
<path d="M136.003 165.422C136.933 168.252 138.583 170.722 138.583 170.722C130.423 168.912 124.983 160.752 123.083 156.932C124.033 155.912 124.913 154.882 125.713 153.852C128.763 160.902 132.953 164.802 133.743 165.492C133.823 165.562 133.873 165.602 133.873 165.602C133.843 165.562 133.823 165.532 133.793 165.492L136.003 165.422Z" fill="#D3D3D3"/>
<path d="M125.182 152.602C124.512 150.882 123.912 148.992 123.452 146.932C123.312 146.312 123.192 145.692 123.082 145.042C122.872 143.882 122.712 142.662 122.612 141.402C122.312 137.962 122.412 134.142 123.092 129.962C123.152 129.502 123.242 129.042 123.332 128.562C123.432 128.042 123.532 127.532 123.652 127.002C125.002 120.822 126.412 114.472 127.622 108.202C130.842 91.5822 132.642 75.4022 128.162 63.7422C134.932 80.2822 132.982 98.9222 129.902 117.542C126.812 136.222 122.292 150.702 133.792 165.482H133.742C132.952 164.792 128.752 160.892 125.712 153.842C125.532 153.452 125.352 153.032 125.182 152.602Z" fill="#474747"/>
<path d="M124.103 76.552C123.823 73.692 123.343 70.992 122.723 68.542C122.223 66.552 121.633 64.722 120.993 63.062C123.813 62.932 126.393 63.102 128.033 63.462C128.073 63.562 128.113 63.652 128.153 63.752C132.633 75.422 130.823 91.602 127.613 108.212L127.403 108.172C122.813 114.592 112.483 118.172 103.643 120.032C101.303 120.522 99.353 120.792 97.543 120.642C96.973 120.592 96.423 120.512 95.873 120.382L95.9731 119.962C107.753 119.052 120.453 109.082 123.463 92.142C124.453 86.582 124.563 81.312 124.103 76.552Z" fill="white"/>
<path d="M128.162 63.7515C128.122 63.6515 128.082 63.5615 128.042 63.4615C126.402 63.1015 123.822 62.9315 121.002 63.0615C119.742 59.7915 118.262 57.1815 116.842 55.4115C115.052 53.1815 113.402 50.7615 112.052 48.2615C112.032 42.8515 112.612 37.5515 113.412 34.0215C113.412 40.9915 117.602 44.2515 126.442 60.0515C127.092 61.2315 127.672 62.4615 128.162 63.7515Z" fill="white"/>
<path d="M127.403 108.182L127.613 108.222C126.403 114.492 124.993 120.842 123.643 127.022C123.523 127.552 123.423 128.062 123.323 128.582C114.413 129.032 102.323 124.502 97.543 120.692V120.642C99.353 120.792 101.303 120.522 103.643 120.032C112.483 118.182 122.823 114.602 127.403 108.182Z" fill="black"/>
<path d="M125.183 152.602C125.353 153.042 125.523 153.452 125.713 153.862C124.913 154.892 124.033 155.932 123.083 156.942C111.143 169.862 88.9028 181.522 88.9028 181.522C88.9028 181.522 88.0028 174.052 86.9028 168.302C85.4728 160.862 82.9428 152.812 81.6328 146.732C82.2628 148.302 82.9628 150.032 83.6728 151.842C86.9228 160.162 90.5328 170.422 90.5328 177.072C90.5428 177.072 115.003 164.392 125.183 152.602Z" fill="#D3D3D3"/>
<path d="M114.613 63.8523C116.053 67.0123 118.223 69.0323 121.313 68.8923L122.723 68.5423C123.343 71.0023 123.823 73.6923 124.103 76.5523C124.553 81.3123 124.443 86.5823 123.463 92.1423C120.453 109.082 107.763 119.052 95.973 119.962L95.873 120.382C94.643 120.082 93.433 119.562 92.173 118.722C90.693 117.742 89.133 116.362 87.373 114.462C82.613 109.362 77.613 102.372 76.213 91.2123C76.143 90.6523 76.063 90.0623 76.013 89.4523C77.803 88.8523 79.653 86.4223 79.453 84.1623L79.073 84.1223C79.083 83.8623 78.993 83.6023 78.783 83.3923C78.123 82.7223 77.033 81.5023 75.793 80.1323L75.883 80.0523C76.083 77.6023 76.483 74.9023 77.193 71.8823C77.193 71.8723 77.203 71.8623 77.203 71.8523C79.463 65.4923 82.043 60.2623 84.723 55.9823C95.773 38.3323 108.673 36.5723 108.673 36.5723C108.673 40.4023 110.003 44.4323 112.053 48.2623C112.073 54.0023 112.773 59.8423 114.613 63.8523ZM121.723 75.8123C121.443 74.2523 120.383 73.0023 118.923 72.7023C116.903 72.2923 114.893 73.8423 114.413 76.1623C113.943 78.4823 115.193 80.7023 117.203 81.1123C119.213 81.5223 121.223 79.9723 121.703 77.6523C121.833 77.0123 121.833 76.3923 121.723 75.8123ZM86.393 68.1823C85.773 68.7923 85.313 69.6223 85.113 70.5823C84.643 72.9023 85.893 75.1123 87.903 75.5223C89.913 75.9323 91.933 74.3823 92.413 72.0623C92.883 69.7423 91.633 67.5223 89.623 67.1123C88.443 66.8823 87.263 67.3023 86.393 68.1823Z" fill="white"/>
<path d="M123.453 146.932C123.913 148.992 124.513 150.872 125.183 152.602C115.003 164.392 90.5329 177.082 90.5329 177.082C90.5329 170.442 86.9229 160.172 83.6729 151.852L85.1229 151.292C85.3629 152.042 86.0629 152.602 86.9029 152.602C87.4229 152.602 87.8928 152.392 88.2328 152.052C90.4328 155.022 93.1829 157.532 96.3629 158.822C96.2529 159.062 96.2029 159.312 96.2029 159.582C96.2029 160.602 97.0328 161.442 98.0728 161.442C99.0528 161.442 99.8629 160.682 99.9229 159.712C103.583 160.122 107.113 159.162 110.323 157.562C110.623 158.202 111.263 158.652 112.023 158.652C113.053 158.652 113.893 157.822 113.893 156.792C113.893 156.372 113.753 156.002 113.543 155.692C115.543 154.382 117.373 152.882 118.953 151.442C119.293 151.872 119.813 152.142 120.403 152.142C121.423 152.142 122.263 151.312 122.263 150.282C122.263 149.722 122.023 149.212 121.623 148.872C122.313 148.152 122.933 147.482 123.453 146.932Z" fill="white"/>
<path d="M97.5423 120.691C102.322 124.501 114.412 129.031 123.322 128.581C123.232 129.051 123.152 129.511 123.082 129.981H123.072C110.892 135.741 94.3323 132.601 91.3623 128.581C91.8923 125.761 92.1023 122.291 92.0123 119.121L92.1623 118.731C93.4223 119.561 94.6323 120.091 95.8623 120.391C96.4023 120.531 96.9623 120.611 97.5323 120.651V120.691H97.5423Z" fill="white"/>
<path d="M123.082 145.052C123.192 145.692 123.322 146.322 123.452 146.942C122.922 147.492 122.312 148.152 121.602 148.872C121.282 148.582 120.862 148.412 120.392 148.412C119.362 148.412 118.532 149.242 118.532 150.282C118.532 150.722 118.682 151.122 118.942 151.442C117.352 152.882 115.532 154.382 113.532 155.692C113.192 155.232 112.632 154.932 112.022 154.932C111.002 154.932 110.162 155.752 110.162 156.792C110.162 157.062 110.222 157.322 110.322 157.562C107.112 159.162 103.582 160.122 99.9221 159.712C99.9321 159.662 99.9322 159.632 99.9322 159.582C99.9322 158.552 99.1021 157.712 98.0721 157.712C97.3121 157.712 96.6522 158.162 96.3722 158.822C93.1922 157.522 90.4422 155.022 88.2422 152.052C88.5722 151.712 88.7722 151.252 88.7722 150.742C88.7722 149.722 87.9422 148.882 86.9022 148.882C86.6622 148.882 86.4422 148.932 86.2422 149.002C84.6122 146.152 83.4322 143.132 82.8022 140.452L82.7021 140.332C83.5021 139.652 84.2422 139.012 84.9422 138.402C89.6322 141.722 96.8822 149.882 123.082 145.052Z" fill="white"/>
<path d="M123.083 129.972C122.413 134.152 122.313 137.972 122.613 141.412C107.153 146.842 89.4228 141.072 86.5328 137.262L86.3828 137.112C88.3028 135.352 89.6428 133.892 90.1628 132.602C90.6628 131.592 91.0728 130.202 91.3728 128.582C94.3428 132.592 110.903 135.732 123.083 129.972Z" fill="white"/>
<path d="M122.613 141.412C122.713 142.672 122.873 143.882 123.083 145.052C96.8826 149.882 89.6326 141.722 84.9326 138.402C85.4526 137.952 85.9326 137.522 86.3826 137.112L86.5326 137.262C89.4226 141.072 107.153 146.842 122.613 141.412Z" fill="#D3D3D3"/>
<path d="M122.733 68.5415L121.323 68.8915C118.233 69.0315 116.063 67.0115 114.623 63.8515C116.673 63.4115 118.903 63.1515 121.003 63.0615C121.643 64.7215 122.233 66.5515 122.733 68.5415Z" fill="white"/>
<path d="M121.603 148.862C122.003 149.202 122.243 149.702 122.243 150.272C122.243 151.292 121.413 152.132 120.383 152.132C119.793 152.132 119.273 151.862 118.933 151.432C119.923 150.532 120.813 149.662 121.603 148.862Z" fill="black"/>
<path d="M121.723 75.8115C121.833 76.3915 121.833 77.0215 121.703 77.6515C121.233 79.9715 119.223 81.5215 117.203 81.1115C115.183 80.7015 113.943 78.4815 114.413 76.1615C114.883 73.8415 116.893 72.2915 118.923 72.7015C120.383 73.0015 121.443 74.2515 121.723 75.8115Z" fill="black"/>
<path d="M120.392 148.402C120.862 148.402 121.292 148.572 121.602 148.862C120.812 149.662 119.922 150.532 118.932 151.432C118.682 151.112 118.522 150.712 118.522 150.272C118.532 149.232 119.352 148.402 120.392 148.402Z" fill="black"/>
<path d="M122.823 20.1816C122.823 20.1816 114.663 25.6116 113.433 33.8816L113.203 33.8416C113.203 33.8416 112.183 33.6916 109.573 33.8416L109.503 33.1016C109.563 33.0916 109.633 33.0916 109.693 33.0816C112.743 26.5916 118.243 22.0216 122.823 20.1816Z" fill="#474747"/>
<path d="M116.833 55.4117C118.253 57.1817 119.733 59.7917 120.993 63.0617C118.893 63.1517 116.663 63.4017 114.613 63.8517C112.773 59.8417 112.073 54.0017 112.043 48.2617C113.393 50.7617 115.053 53.1817 116.833 55.4117Z" fill="white"/>
<path d="M113.523 155.682C113.743 155.992 113.873 156.362 113.873 156.782C113.873 157.802 113.043 158.642 112.003 158.642C111.253 158.642 110.603 158.202 110.303 157.552C111.423 156.982 112.503 156.362 113.523 155.682Z" fill="black"/>
<path d="M112.012 154.922C112.632 154.922 113.182 155.222 113.522 155.682C112.502 156.362 111.422 156.992 110.312 157.552C110.212 157.312 110.152 157.052 110.152 156.782C110.152 155.742 110.992 154.922 112.012 154.922Z" fill="black"/>
<path d="M113.432 33.8823C113.422 33.9323 113.422 33.9723 113.412 34.0223C112.612 37.5523 112.032 42.8523 112.052 48.2623C110.002 44.4323 108.672 40.4023 108.672 36.5723C108.672 36.5723 95.7725 38.3323 84.7225 55.9823C84.1125 55.7423 83.5625 55.5523 83.0825 55.4223L83.0625 55.4123C89.9325 41.1123 99.4925 33.9723 109.503 33.1123L109.572 33.8523C112.172 33.7023 113.202 33.8523 113.202 33.8523L113.432 33.8823Z" fill="white"/>
<path d="M99.933 159.572C99.933 159.622 99.933 159.652 99.923 159.702C99.613 159.672 99.3031 159.632 99.0031 159.572C98.0931 159.422 97.213 159.152 96.373 158.812C96.653 158.162 97.313 157.702 98.073 157.702C99.093 157.702 99.933 158.532 99.933 159.572Z" fill="black"/>
<path d="M98.9924 159.572C99.3024 159.622 99.6124 159.672 99.9124 159.702C99.8524 160.672 99.0424 161.432 98.0624 161.432C97.0324 161.432 96.1924 160.602 96.1924 159.572C96.1924 159.302 96.2424 159.042 96.3524 158.812C97.2124 159.152 98.0924 159.412 98.9924 159.572Z" fill="black"/>
<path d="M86.3926 68.1817C87.2626 67.3017 88.4426 66.8717 89.6226 67.1117C91.6326 67.5217 92.8826 69.7417 92.4126 72.0617C91.9426 74.3817 89.9226 75.9317 87.9026 75.5217C85.8926 75.1117 84.6426 72.9017 85.1126 70.5817C85.3126 69.6317 85.7826 68.7917 86.3926 68.1817Z" fill="black"/>
<path d="M70.8728 117.552C70.3628 115.882 68.7728 113.942 66.5728 113.192C65.7828 112.442 64.4828 111.232 63.3228 110.232C63.2728 110.132 63.2028 110.032 63.1428 109.922L64.0228 109.532C64.0228 109.532 65.6828 108.622 69.8428 109.532C72.2828 110.062 76.4828 111.342 76.4828 108.622C76.4828 106.592 74.3328 102.272 64.0228 102.272C63.9528 102.272 63.8728 102.272 63.7928 102.262C63.1728 95.6219 62.7028 89.5419 62.8828 85.0519V84.7119C63.9728 84.7319 64.9728 84.7419 65.5528 84.7519C66.3728 84.7619 67.1028 84.9519 68.0228 85.5019C68.6128 85.8719 69.5228 86.4019 70.9028 87.1519C73.1728 88.3919 75.0628 88.3619 75.7428 87.7219L75.8628 87.8119C75.9128 88.3719 75.9528 88.9119 76.0128 89.4319H76.0228C76.0728 90.0419 76.1528 90.6319 76.2228 91.1919C77.6228 102.352 82.6228 109.342 87.3828 114.442C89.1528 116.342 90.7128 117.722 92.1828 118.702L92.0328 119.092C92.1228 122.262 91.9028 125.732 91.3828 128.552C91.0828 130.162 90.6728 131.562 90.1728 132.572C89.6528 133.872 88.3128 135.332 86.3928 137.082C85.9428 137.492 85.4628 137.912 84.9428 138.372C84.2428 138.982 83.5028 139.622 82.7028 140.302C82.1128 140.802 81.5028 141.322 80.8728 141.872C74.2428 147.572 73.3328 157.652 73.3328 157.652C71.6328 154.272 71.6828 150.192 71.9628 147.552C72.1428 145.902 72.4128 144.822 72.4128 144.822C72.4128 144.822 70.5228 142.382 65.0828 146.652C62.6428 148.572 59.5228 149.972 56.6028 150.562L56.3828 150.402C60.5628 144.842 60.1928 138.902 60.1928 138.902C66.9528 135.872 69.5528 128.602 70.0628 124.162C70.0628 124.182 71.5028 119.962 70.8728 117.552Z" fill="black"/>
<path d="M86.9029 148.872C87.9329 148.872 88.7729 149.702 88.7729 150.732C88.7729 151.242 88.5629 151.702 88.2429 152.042C87.5129 151.072 86.8429 150.052 86.2529 148.992C86.4429 148.922 86.6729 148.872 86.9029 148.872Z" fill="black"/>
<path d="M88.233 152.042C87.893 152.382 87.413 152.592 86.903 152.592C86.073 152.592 85.363 152.042 85.123 151.282C85.073 151.102 85.043 150.922 85.043 150.732C85.043 149.942 85.543 149.262 86.243 148.992C86.843 150.042 87.513 151.072 88.233 152.042Z" fill="black"/>
<path d="M86.2423 148.992C85.5423 149.262 85.0423 149.942 85.0423 150.732C85.0423 150.922 85.0723 151.102 85.1223 151.282L83.6723 151.842C82.9623 150.032 82.2623 148.302 81.6323 146.732C81.5923 146.572 81.5623 146.402 81.5323 146.242C81.1923 144.622 80.9523 143.152 80.8623 141.892C81.4923 141.352 82.1023 140.822 82.6923 140.322L82.7923 140.442C83.4323 143.122 84.6123 146.142 86.2423 148.992Z" fill="white"/>
<path d="M81.5329 146.242L81.4729 146.252C76.0329 150.782 75.1229 163.472 75.1229 163.472C68.3229 160.072 69.4929 148.702 69.6629 147.302L71.9429 147.572C71.6629 150.212 71.6129 154.292 73.3129 157.672C73.3129 157.672 74.2329 147.592 80.8529 141.892C80.9529 143.152 81.2029 144.622 81.5329 146.242Z" fill="#D3D3D3"/>
<path d="M64.173 72.242C64.313 72.252 64.443 72.252 64.573 72.252C65.443 72.272 66.263 72.282 67.013 72.302C67.983 72.342 68.773 72.712 69.013 72.932C70.573 74.312 73.453 77.532 75.7831 80.132C77.0231 81.512 78.113 82.722 78.773 83.392C78.983 83.612 79.073 83.862 79.063 84.122C79.0131 85.302 77.053 86.712 75.573 85.972L75.463 86.112C73.243 84.312 71.1031 81.502 69.2231 79.632C68.3131 78.722 68.383 78.392 66.073 78.142C62.883 77.812 59.523 77.762 56.673 77.302C55.463 77.112 54.533 77.502 53.523 78.452C51.883 79.982 49.2831 82.352 44.7531 86.882L42.053 86.892C42.043 86.882 42.0331 86.882 42.0331 86.882C41.0131 84.832 39.403 83.062 37.373 82.262L41.0331 78.852C45.7831 76.092 49.263 73.232 52.623 71.142C52.983 70.912 54.133 70.552 54.883 70.662C56.663 70.912 60.263 71.442 64.163 72.092V72.242H64.173Z" fill="white"/>
<path d="M55.2525 90.5817C54.6725 93.1117 53.8025 96.4517 52.0125 100.472L51.8525 100.652C51.4425 100.312 51.0825 99.9517 50.7825 99.5917C50.7525 99.5617 50.7325 99.5317 50.7125 99.5016C49.4925 98.0217 48.6925 96.3916 48.4025 94.9616C48.5025 94.2016 48.4925 93.5117 48.3825 92.8817C47.6425 88.4217 42.4225 86.9816 42.0625 86.8916L44.7625 86.8817C49.2925 82.3517 51.8925 79.9817 53.5325 78.4517C54.5425 77.5017 55.4625 77.1117 56.6825 77.3017C59.5325 77.7617 62.8925 77.8216 66.0825 78.1416C68.3925 78.3816 68.3325 78.7217 69.2325 79.6317C71.1125 81.5117 73.2525 84.3116 75.4725 86.1116C75.5325 86.1616 75.5925 86.2217 75.6525 86.2617C76.1125 86.8717 76.1025 87.3917 75.7425 87.7417C75.0625 88.3817 73.1725 88.4117 70.9025 87.1717C69.5225 86.4217 68.6125 85.8917 68.0225 85.5217C67.1025 84.9717 66.3725 84.7817 65.5525 84.7717C64.9825 84.7617 63.9725 84.7517 62.8825 84.7317C61.3125 84.7217 59.5725 84.7217 58.7325 84.7317C58.1125 84.7417 57.4325 84.8017 56.8425 85.4517C56.1525 86.2117 55.8525 87.9617 55.2525 90.5817Z" fill="white"/>
<path d="M63.7928 102.282C63.8628 102.292 63.9428 102.292 64.0228 102.292C74.3428 102.292 76.4828 106.602 76.4828 108.642C76.4828 111.362 72.2728 110.082 69.8428 109.552C65.6828 108.642 64.0228 109.552 64.0228 109.552L63.1428 109.942C62.4528 108.782 61.0728 107.032 58.3528 105.022C56.0728 103.332 53.5328 102.062 51.8428 100.672L52.0028 100.492C53.7928 96.4716 54.6628 93.1316 55.2428 90.6016C55.5228 94.1216 56.7528 96.8516 56.9628 97.2716C56.9628 97.2816 56.9628 97.2916 56.9728 97.2916C56.9828 97.3216 56.9928 97.3416 56.9928 97.3416C58.2228 100.162 60.9828 102.182 63.7928 102.282Z" fill="white"/>
<path d="M72.4126 144.852C72.4126 144.852 72.1426 145.932 71.9626 147.582L69.6826 147.312C69.6926 147.212 69.7026 147.162 69.7026 147.162C69.7026 147.162 66.9826 148.972 64.2626 151.692C62.9926 152.962 60.9926 154.202 58.8326 154.862C58.3126 155.022 58.1226 156.352 57.9826 157.782L56.9726 157.702H54.4326C54.9526 155.692 55.2826 152.872 55.4726 151.562L55.4626 151.552C55.8026 151.182 56.1026 150.802 56.3826 150.422L56.6026 150.582C59.5226 149.992 62.6426 148.592 65.0826 146.672C70.5126 142.412 72.4126 144.852 72.4126 144.852Z" fill="#D3D3D3"/>
<path d="M55.4526 151.552C55.2726 152.862 54.9326 155.682 54.4226 157.702C54.1726 158.682 53.8726 159.472 53.5226 159.782C53.2026 160.072 53.0826 160.702 53.0826 161.512C53.0626 163.402 53.6226 166.292 53.5226 168.122L53.3326 168.152C53.9826 173.612 52.9926 180.522 49.0626 184.302V184.312C47.9526 186.982 48.3626 189.712 49.0126 191.492C49.0226 191.512 49.0226 191.532 49.0326 191.542C51.1126 196.362 55.8126 202.002 56.9226 206.262H56.9326C57.2026 206.992 57.9026 207.492 58.7926 207.922V207.932C59.8626 208.442 61.2126 208.812 62.4326 209.242C63.7726 209.702 64.9726 210.242 65.5126 211.082C65.9026 211.702 66.4726 212.322 67.1126 212.942C68.8226 214.592 71.0426 216.192 71.6126 217.272H-43.1674L-44.0774 217.422C-51.4074 211.432 -48.9674 201.222 -46.7474 188.582C-45.8674 185.912 -46.0774 183.282 -46.2274 180.962C-44.0274 162.972 -31.4974 153.272 -25.3774 141.902C-24.7674 140.382 -23.2974 136.382 -21.3574 132.642C-20.0574 130.152 -18.5474 127.762 -16.9374 126.312C-14.7874 123.722 -11.6674 120.642 -11.6674 119.112C-11.6674 117.252 -7.48738 115.862 -6.32738 112.602C-5.25738 109.562 -1.92738 104.502 2.58263 100.662L2.57262 100.652C4.36262 98.5715 7.14264 96.3915 8.09264 94.6215C8.42264 94.0015 8.85262 93.0315 9.42262 91.9015C10.5026 89.8015 12.1026 87.1215 14.6026 85.0615C14.8426 83.5615 15.2626 81.3315 15.6726 80.1615C16.3126 78.3415 19.2326 78.7915 21.0726 79.2415L21.1026 79.5115C22.1126 79.4315 24.0226 79.3515 26.6326 79.6115C29.3326 79.8815 30.8726 81.0215 32.1326 82.3015C34.0726 81.5415 35.8526 81.6115 37.3826 82.2415C39.4126 83.0515 41.0226 84.8115 42.0426 86.8615C42.0426 86.8615 42.0526 86.8615 42.0626 86.8715C42.4126 86.9615 47.6426 88.4015 48.3826 92.8615C48.2326 93.4615 48.2326 94.1715 48.4026 94.9415C48.6926 96.3715 49.4926 98.0015 50.7126 99.4815C50.7326 99.5115 50.7626 99.5415 50.7826 99.5715C51.0826 99.9315 51.4426 100.292 51.8526 100.632C53.5426 102.022 56.0726 103.302 58.3626 104.982C61.0826 106.992 62.4626 108.742 63.1526 109.902C63.2126 110.012 63.2826 110.112 63.3326 110.212C64.4926 111.212 65.8026 112.412 66.5826 113.172C68.7726 113.922 70.3726 115.862 70.8826 117.532C71.5126 119.942 70.0626 124.162 70.0626 124.162C69.5426 128.602 66.9526 135.872 60.1926 138.902C60.1926 138.902 60.5626 144.852 56.3826 150.402C56.1026 150.802 55.7926 151.182 55.4526 151.552Z" fill="white"/>
<path d="M52.9428 186.672C52.9428 186.672 59.7128 198.832 58.8128 207.892L58.7928 207.922C57.9028 207.492 57.2028 206.992 56.9328 206.262H56.9228C55.8128 202.002 51.1128 196.362 49.0328 191.542C49.0228 191.532 49.0228 191.512 49.0128 191.492C48.3628 189.712 47.9528 186.982 49.0628 184.312V184.302C52.9928 180.522 53.9828 173.602 53.3328 168.152L53.5228 168.122C53.6228 166.292 53.0628 163.412 53.0828 161.512L55.7528 163.342L57.2628 163.232C57.9628 167.692 59.2528 180.442 52.9428 186.672Z" fill="#D3D3D3"/>
<path d="M56.9628 157.702L57.9728 157.782C57.7828 159.652 57.6728 161.712 57.0028 161.662C57.0028 161.662 57.1328 162.242 57.2728 163.242L55.7628 163.352L53.0928 161.522C53.1028 160.702 53.2228 160.082 53.5328 159.792C53.8728 159.472 54.1728 158.682 54.4328 157.712H56.9628V157.702Z" fill="#D3D3D3"/>
<path d="M64.1728 72.0813C60.2728 71.4313 56.6628 70.9013 54.8928 70.6513C54.1528 70.5413 53.0028 70.9013 52.6328 71.1313C49.2728 73.2213 45.7928 76.0813 41.0428 78.8413L37.3828 82.2513" stroke="black" stroke-width="2" stroke-miterlimit="10" stroke-linecap="round" stroke-linejoin="round"/>
<path d="M32.0732 82.342C32.0932 82.332 32.1232 82.322 32.1332 82.312C34.0732 81.552 35.8532 81.622 37.3832 82.252C39.4132 83.062 41.0232 84.822 42.0432 86.872C42.0432 86.872 42.0533 86.872 42.0633 86.882C42.4133 86.972 47.6432 88.412 48.3832 92.872C48.4932 93.502 48.5033 94.192 48.4033 94.952C48.4033 94.982 48.3932 95.002 48.3932 95.022" stroke="black" stroke-width="2" stroke-miterlimit="10" stroke-linecap="round" stroke-linejoin="round"/>
<path d="M50.7832 99.5918C51.0832 99.9518 51.4432 100.312 51.8532 100.652C53.5432 102.042 56.0732 103.322 58.3632 105.002C61.0832 107.012 62.4632 108.762 63.1532 109.922C63.2132 110.032 63.2832 110.132 63.3332 110.232C63.7132 110.942 63.8032 111.342 63.8032 111.342" stroke="black" stroke-width="2" stroke-miterlimit="10" stroke-linecap="round" stroke-linejoin="round"/>
<path d="M50.2031 98.6621C50.3331 98.9521 50.5031 99.2321 50.7131 99.5021" stroke="black" stroke-width="2" stroke-miterlimit="10" stroke-linecap="round" stroke-linejoin="round"/>
<path d="M66.5127 113.162C66.5327 113.172 66.5627 113.182 66.5727 113.192C68.7627 113.942 70.3627 115.882 70.8727 117.552C70.9927 117.922 71.0427 118.282 71.0427 118.602" stroke="black" stroke-width="2" stroke-miterlimit="10" stroke-linecap="round" stroke-linejoin="round"/>
<path d="M75.5828 85.9719C77.0628 86.7119 79.0228 85.3019 79.0728 84.1219C79.0828 83.8619 78.9928 83.6019 78.7828 83.3919C78.1228 82.7219 77.0328 81.5019 75.7928 80.1319C73.4628 77.5319 70.5828 74.3119 69.0228 72.9319C68.7828 72.7119 67.9928 72.3419 67.0228 72.3019C66.2728 72.2719 65.4528 72.2619 64.5828 72.2519C64.4528 72.2519 64.3228 72.2519 64.1828 72.2419C61.6428 72.2019 58.7528 72.1819 56.1028 71.9019C55.6828 71.8619 54.5128 71.8219 53.7128 72.4819C50.9928 74.7219 49.9728 75.6219 44.7628 79.6319L41.1328 83.2619" stroke="black" stroke-width="2" stroke-miterlimit="10" stroke-linecap="round" stroke-linejoin="round"/>
<path d="M56.9834 97.2715C56.9834 97.2915 56.9934 97.3015 57.0034 97.3215C58.2234 100.161 60.9934 102.181 63.8034 102.281C63.8734 102.291 63.9534 102.291 64.0334 102.291C74.3534 102.291 76.4934 106.601 76.4934 108.641C76.4934 111.361 72.2834 110.081 69.8534 109.551C65.6934 108.641 64.0334 109.551 64.0334 109.551" stroke="black" stroke-width="2" stroke-miterlimit="10" stroke-linecap="round" stroke-linejoin="round"/>
<path d="M56.543 95.9414C56.653 96.3914 56.783 96.8314 56.973 97.2514" stroke="black" stroke-width="2" stroke-miterlimit="10" stroke-linecap="round" stroke-linejoin="round"/>
<path d="M44.7627 86.8817C49.2927 82.3517 51.8927 79.9817 53.5327 78.4517C54.5427 77.5017 55.4627 77.1117 56.6827 77.3017C59.5327 77.7617 62.8927 77.8216 66.0827 78.1416C68.3927 78.3816 68.3327 78.7217 69.2327 79.6317C71.1127 81.5117 73.2527 84.3116 75.4727 86.1116C75.5327 86.1616 75.5927 86.2217 75.6527 86.2617C76.1127 86.8717 76.1027 87.3917 75.7427 87.7417C75.0627 88.3817 73.1727 88.4117 70.9027 87.1717C69.5227 86.4217 68.6127 85.8917 68.0227 85.5217C67.1027 84.9717 66.3727 84.7817 65.5527 84.7717C64.9827 84.7617 63.9727 84.7517 62.8827 84.7317C61.3127 84.7217 59.5727 84.7217 58.7327 84.7317C58.1127 84.7417 57.4327 84.8017 56.8427 85.4517C56.1427 86.2117 55.8427 87.9717 55.2427 90.5917C54.6627 93.1217 53.7927 96.4617 52.0027 100.482" stroke="black" stroke-width="2" stroke-miterlimit="10" stroke-linecap="round" stroke-linejoin="round"/>
<path d="M62.8933 85.0615C62.7133 89.5615 63.1833 95.6315 63.8033 102.272V102.282" stroke="black" stroke-width="2" stroke-miterlimit="10" stroke-linecap="round" stroke-linejoin="round"/>
<path d="M76.0127 89.4521C76.0627 90.0621 76.1427 90.6521 76.2127 91.2121C77.6127 102.372 82.6127 109.362 87.3727 114.462C89.1427 116.362 90.7027 117.742 92.1727 118.722C93.4327 119.552 94.6427 120.082 95.8727 120.382C96.4127 120.522 96.9727 120.602 97.5427 120.642C99.3527 120.792 101.303 120.522 103.643 120.032C112.483 118.172 122.813 114.592 127.403 108.172" stroke="black" stroke-width="2" stroke-miterlimit="10" stroke-linecap="round" stroke-linejoin="round"/>
<path d="M75.8633 87.832C75.9133 88.392 75.9533 88.932 76.0133 89.452" stroke="black" stroke-width="2" stroke-miterlimit="10" stroke-linecap="round" stroke-linejoin="round"/>
<path d="M77.183 71.8721C76.473 74.8921 76.073 77.5921 75.873 80.0421" stroke="black" stroke-width="2" stroke-miterlimit="10" stroke-linecap="round" stroke-linejoin="round"/>
<path d="M113.413 34.0216C113.423 33.9716 113.423 33.9316 113.433 33.8816C114.663 25.6116 122.823 20.1816 122.823 20.1816C118.243 22.0116 112.743 26.5916 109.693 33.0816C109.633 33.0916 109.563 33.0916 109.503 33.1016C99.4934 33.9616 89.9334 41.1016 83.0634 55.4016C82.6234 56.3016 82.2033 57.2316 81.7933 58.1916C79.5833 63.3616 78.1234 67.8716 77.1934 71.8416" stroke="black" stroke-width="2" stroke-miterlimit="10" stroke-linecap="round" stroke-linejoin="round"/>
<path d="M83.083 55.4121C83.563 55.5521 84.113 55.7321 84.723 55.9721C88.363 57.3821 93.883 60.4521 96.683 62.8421" stroke="black" stroke-width="2" stroke-miterlimit="10" stroke-linecap="round" stroke-linejoin="round"/>
<path d="M111.553 64.702C112.493 64.362 113.533 64.072 114.613 63.852C116.663 63.412 118.893 63.152 120.993 63.062C123.813 62.932 126.393 63.102 128.033 63.462" stroke="black" stroke-width="2" stroke-miterlimit="10" stroke-linecap="round" stroke-linejoin="round"/>
<path d="M88.0733 67.7314C87.8533 67.9514 87.1533 68.1114 86.3933 68.1814C85.5533 68.2514 84.6033 68.2014 84.1133 67.9514" stroke="black" stroke-miterlimit="10" stroke-linecap="round" stroke-linejoin="round"/>
<path d="M120.153 74.2412C120.583 74.8712 121.103 75.4212 121.723 75.8112C122.403 76.2512 123.193 76.5212 124.103 76.5512C124.173 76.5612 124.253 76.5612 124.343 76.5612" stroke="black" stroke-miterlimit="10" stroke-linecap="round" stroke-linejoin="round"/>
<path d="M99.9327 70.292C97.6027 79.122 95.2827 83.772 94.3527 86.562C93.4327 89.352 94.8127 93.542 99.4627 93.542" stroke="black" stroke-width="2" stroke-miterlimit="10" stroke-linecap="round" stroke-linejoin="round"/>
<path d="M93.4932 99.9316C96.2432 101.762 101.743 101.762 104.583 100.512" stroke="black" stroke-width="2" stroke-miterlimit="10" stroke-linecap="round" stroke-linejoin="round"/>
<path d="M82.7226 79.1221L80.3926 82.8421" stroke="black" stroke-width="2" stroke-miterlimit="10" stroke-linecap="round" stroke-linejoin="round"/>
<path d="M121.313 85.6318L118.993 89.3518" stroke="black" stroke-width="2" stroke-miterlimit="10" stroke-linecap="round" stroke-linejoin="round"/>
<path d="M87.5828 80.9814L86.3428 82.8414" stroke="black" stroke-width="2" stroke-miterlimit="10" stroke-linecap="round" stroke-linejoin="round"/>
<path d="M115.953 84.7021L114.703 86.5621" stroke="black" stroke-width="2" stroke-miterlimit="10" stroke-linecap="round" stroke-linejoin="round"/>
<path d="M133.873 165.612C133.873 165.612 133.823 165.572 133.743 165.502C132.953 164.812 128.753 160.912 125.713 153.862C125.533 153.452 125.363 153.042 125.183 152.602C124.513 150.882 123.913 148.992 123.453 146.932C123.313 146.312 123.193 145.692 123.083 145.042C122.873 143.882 122.713 142.662 122.613 141.402C122.313 137.962 122.413 134.142 123.093 129.962C123.153 129.502 123.243 129.042 123.333 128.562C123.433 128.042 123.533 127.532 123.653 127.002C125.003 120.822 126.413 114.472 127.623 108.202C130.843 91.5817 132.643 75.4017 128.163 63.7417C127.673 62.4517 127.093 61.2217 126.443 60.0417C117.603 44.2317 113.413 40.9817 113.413 34.0117C112.613 37.5417 112.033 42.8417 112.053 48.2517C112.083 53.9917 112.783 59.8417 114.623 63.8417C116.063 67.0017 118.233 69.0217 121.323 68.8817" stroke="black" stroke-width="2" stroke-miterlimit="10" stroke-linecap="round" stroke-linejoin="round"/>
<path d="M163.643 156.311C163.793 156.711 168.673 169.591 177.833 171.421C177.833 171.421 162.243 171.181 152.483 168.391C142.723 165.601 132.953 157.691 130.163 140.031C130.163 140.031 124.613 153.441 133.803 165.491" stroke="black" stroke-width="2" stroke-miterlimit="10" stroke-linecap="round" stroke-linejoin="round"/>
<path d="M64.583 71.4317C68.123 43.7517 80.143 25.8617 93.493 16.5117C111.823 3.68169 126.493 9.18169 126.493 9.18169C147.583 6.43169 173.703 25.9417 173.243 71.5117C172.803 115.092 168.173 134.002 177.403 148.402C177.813 149.062 178.263 149.712 178.743 150.352C178.743 150.352 168.653 145.762 166.823 128.352C166.823 128.352 166.823 152.182 175.723 159.102C175.723 159.102 167.823 159.102 163.643 156.322C163.643 156.312 163.633 156.312 163.633 156.312" stroke="black" stroke-width="2" stroke-miterlimit="10" stroke-linecap="round" stroke-linejoin="round"/>
<path d="M92.0228 119.111C92.1128 122.281 91.8928 125.751 91.3728 128.571C91.0728 130.181 90.6628 131.581 90.1628 132.591C89.6428 133.891 88.3028 135.351 86.3828 137.101C85.9328 137.511 85.4528 137.931 84.9328 138.391C84.2328 139.001 83.4928 139.641 82.6928 140.321C82.1028 140.821 81.4928 141.341 80.8628 141.891C74.2328 147.591 73.3228 157.671 73.3228 157.671C71.6228 154.291 71.6728 150.211 71.9528 147.571C72.1328 145.921 72.4028 144.841 72.4028 144.841C72.4028 144.841 70.5128 142.401 65.0728 146.671C62.6328 148.591 59.5128 149.991 56.5928 150.581" stroke="black" stroke-width="2" stroke-miterlimit="10" stroke-linecap="round" stroke-linejoin="round"/>
<path d="M91.373 128.582C94.343 132.602 110.903 135.732 123.083 129.982" stroke="black" stroke-width="2" stroke-miterlimit="10" stroke-linecap="round" stroke-linejoin="round"/>
<path d="M86.5332 137.262C89.4232 141.072 107.153 146.842 122.613 141.412" stroke="black" stroke-width="2" stroke-miterlimit="10" stroke-linecap="round" stroke-linejoin="round"/>
<path d="M121.603 148.862C122.313 148.142 122.923 147.482 123.453 146.932L123.463 146.922" stroke="black" stroke-miterlimit="10" stroke-linecap="round" stroke-linejoin="round"/>
<path d="M113.523 155.682C115.523 154.372 117.353 152.872 118.933 151.432" stroke="black" stroke-miterlimit="10" stroke-linecap="round" stroke-linejoin="round"/>
<path d="M99.9229 159.702C103.583 160.112 107.113 159.152 110.323 157.552" stroke="black" stroke-miterlimit="10" stroke-linecap="round" stroke-linejoin="round"/>
<path d="M88.2334 152.042C90.4334 155.012 93.1834 157.522 96.3634 158.812" stroke="black" stroke-miterlimit="10" stroke-linecap="round" stroke-linejoin="round"/>
<path d="M82.793 140.441C83.423 143.121 84.603 146.141 86.233 148.991" stroke="black" stroke-miterlimit="10" stroke-linecap="round" stroke-linejoin="round"/>
<path d="M80.8633 141.892C80.9533 143.152 81.2033 144.622 81.5333 146.242C81.5633 146.402 81.5933 146.572 81.6333 146.732C82.9433 152.802 85.4633 160.852 86.9033 168.302C88.0133 174.052 88.9033 181.522 88.9033 181.522C88.9033 181.522 111.143 169.862 123.083 156.942C124.033 155.922 124.913 154.892 125.713 153.862" stroke="black" stroke-width="2" stroke-miterlimit="10" stroke-linecap="round" stroke-linejoin="round"/>
<path d="M175.723 159.102C179.863 161.422 183.233 164.122 185.913 167.392" stroke="black" stroke-width="2" stroke-miterlimit="10" stroke-linecap="round" stroke-linejoin="round"/>
<path d="M70.1732 122.531C70.1732 123.011 70.1332 123.571 70.0632 124.181C69.5432 128.621 66.9532 135.891 60.1932 138.921C60.1932 138.921 60.5631 144.871 56.3831 150.421C56.1031 150.801 55.7932 151.181 55.4632 151.551C55.1632 151.901 54.8332 152.251 54.4932 152.581" stroke="black" stroke-width="2" stroke-miterlimit="10" stroke-linecap="round" stroke-linejoin="round"/>
<path d="M52.9434 157.702H54.4233H56.9633" stroke="black" stroke-width="2" stroke-miterlimit="10" stroke-linecap="round" stroke-linejoin="round"/>
<path d="M52.9434 161.432L53.0833 161.522L55.7534 163.352" stroke="black" stroke-width="2" stroke-miterlimit="10" stroke-linecap="round" stroke-linejoin="round"/>
<path d="M49.0633 184.321C48.5533 184.811 47.9933 185.251 47.3733 185.631C41.3233 189.331 46.4533 195.851 43.6533 200.031" stroke="black" stroke-width="2" stroke-miterlimit="10" stroke-linecap="round" stroke-linejoin="round"/>
<path d="M52.9425 165.821C53.1025 166.551 53.2425 167.331 53.3325 168.151C53.9825 173.611 52.9925 180.521 49.0625 184.301" stroke="black" stroke-width="2" stroke-miterlimit="10" stroke-linecap="round" stroke-linejoin="round"/>
<path d="M49.043 191.542C51.123 196.362 55.823 202.002 56.933 206.262C57.143 207.022 57.223 207.732 57.163 208.392" stroke="black" stroke-width="2" stroke-miterlimit="10" stroke-linecap="round" stroke-linejoin="round"/>
<path d="M48.5928 190.412C48.7228 190.762 48.8528 191.132 49.0228 191.502" stroke="black" stroke-width="2" stroke-miterlimit="10" stroke-linecap="round" stroke-linejoin="round"/>
<path d="M30.7031 79.1213L32.2731 76.2812" stroke="black" stroke-width="2" stroke-miterlimit="10" stroke-linecap="round" stroke-linejoin="round"/>
<path d="M25.4629 79.1214C25.5329 78.2514 25.6029 76.5714 25.6229 75.4414" stroke="black" stroke-width="2" stroke-miterlimit="10" stroke-linecap="round" stroke-linejoin="round"/>
<path d="M21.0733 79.2517C19.2333 78.8017 16.3133 78.3417 15.6733 80.1717C15.2633 81.3317 14.8533 83.5717 14.6033 85.0717C14.4533 85.9517 14.3633 86.5717 14.3633 86.5717" stroke="black" stroke-width="2" stroke-miterlimit="10" stroke-linecap="round" stroke-linejoin="round"/>
<path d="M7.38281 87.6514L9.42282 91.9114L9.54282 92.1414" stroke="black" stroke-width="2" stroke-miterlimit="10" stroke-linecap="round" stroke-linejoin="round"/>
<path d="M4.20312 94.6318L6.87314 95.3218" stroke="black" stroke-width="2" stroke-miterlimit="10" stroke-linecap="round" stroke-linejoin="round"/>
<path d="M3.57324 99.8516C3.23324 100.112 2.91325 100.382 2.58325 100.672C-1.92675 104.502 -5.25675 109.572 -6.32675 112.612C-7.48675 115.862 -11.6667 117.262 -11.6667 119.122C-11.6667 120.642 -14.7867 123.732 -16.9367 126.322C-17.4167 126.902 -17.8468 127.442 -18.1768 127.952" stroke="black" stroke-width="2" stroke-miterlimit="10" stroke-linecap="round" stroke-linejoin="round"/>
<path d="M39.9434 128.582V139.532" stroke="black" stroke-width="2" stroke-miterlimit="10" stroke-linecap="round" stroke-linejoin="round"/>
<path d="M127.853 205.302C128.003 204.962 128.193 204.592 128.413 204.202C129.983 201.492 133.363 197.832 138.403 196.172C144.003 194.352 147.863 192.992 151.633 191.162C152.123 190.922 152.623 190.672 153.123 190.412" stroke="black" stroke-width="2" stroke-miterlimit="10" stroke-linecap="round" stroke-linejoin="round"/>
<path d="M166.333 184.312C173.313 177.462 183.763 174.092 186.123 167.432C186.743 165.672 186.793 163.692 186.073 161.352" stroke="black" stroke-width="2" stroke-miterlimit="10" stroke-linecap="round" stroke-linejoin="round"/>
<path d="M164.713 186.042C165.213 185.452 165.733 184.892 166.293 184.342" stroke="black" stroke-width="2" stroke-miterlimit="10" stroke-linecap="round" stroke-linejoin="round"/>
<path d="M185.133 150.731C186.463 151.111 187.623 151.751 188.663 152.591C192.173 155.451 194.263 160.611 197.073 165.931C198.193 168.041 200.713 170.101 202.283 172.121" stroke="black" stroke-width="2" stroke-miterlimit="10" stroke-linecap="round" stroke-linejoin="round"/>
<path d="M160.403 187.922V186.752V185.412" stroke="black" stroke-width="2" stroke-miterlimit="10" stroke-linecap="round" stroke-linejoin="round"/>
<path d="M157.653 189.762L157.153 189.072L156.323 187.922" stroke="black" stroke-width="2" stroke-miterlimit="10" stroke-linecap="round" stroke-linejoin="round"/>
<path d="M50.7031 99.502C50.7231 99.532 50.7531 99.562 50.7731 99.592" stroke="black" stroke-width="2" stroke-miterlimit="10" stroke-linecap="round" stroke-linejoin="round"/>
<path d="M56.9727 97.2617C56.9727 97.2717 56.9726 97.2817 56.9826 97.2817" stroke="black" stroke-width="2" stroke-miterlimit="10" stroke-linecap="round" stroke-linejoin="round"/>
<path d="M49.0234 191.502C49.0334 191.522 49.0334 191.542 49.0434 191.552" stroke="black" stroke-width="2" stroke-miterlimit="10" stroke-linecap="round" stroke-linejoin="round"/>
<path d="M49.0625 184.312V184.322" stroke="black" stroke-width="2" stroke-miterlimit="10" stroke-linecap="round" stroke-linejoin="round"/>
<path d="M77.1926 71.8516C77.1926 71.8616 77.1826 71.8716 77.1826 71.8816" stroke="black" stroke-width="2" stroke-miterlimit="10" stroke-linecap="round" stroke-linejoin="round"/>
<path d="M76.0129 89.4521H76.0029" stroke="black" stroke-width="2" stroke-miterlimit="10" stroke-linecap="round" stroke-linejoin="round"/>
<path d="M133.793 165.502C133.823 165.542 133.843 165.572 133.873 165.612" stroke="black" stroke-width="2" stroke-miterlimit="10" stroke-linecap="round" stroke-linejoin="round"/>
</g>
</svg>
